<svg xmlns="http://www.w3.org/2000/svg" xmlns:xlink="http://www.w3.org/1999/xlink" width="322" height="189" viewBox="0 0 322 189">
  <defs>
    <clipPath id="clip-path">
      <rect id="Rectangle_2350" data-name="Rectangle 2350" width="322" height="189" transform="translate(322 804.045) rotate(180)" fill="#fff"/>
    </clipPath>
  </defs>
  <g id="Mask_Group_5" data-name="Mask Group 5" transform="translate(0 -615.045)" clip-path="url(#clip-path)">
    <g id="Group_4555" data-name="Group 4555" transform="translate(337.037 812.867) rotate(173)" opacity="0.74">
      <path id="Path_5159" data-name="Path 5159" d="M331.026,189.906s-19.719.867-27.09-21.245-32.518-18.644-35.987-18.644-18.21,2.6-29.05-13.007-18.644-15.175-27.315-12.14-62.435,15.609-85.414-12.14-62-35.987-82.813-39.889S0,48.994,0,48.994V0H331.026Z" transform="translate(5.067 30.92)" fill="#dfdfdf"/>
      <path id="Path_5160" data-name="Path 5160" d="M331.026,189.906s-19.719.867-27.09-21.245-32.518-18.644-35.987-18.644-18.21,2.6-29.05-13.007-18.644-15.175-27.315-12.14-62.435,15.609-85.414-12.14-62-35.987-82.813-39.889S0,48.994,0,48.994V0H331.026Z" transform="translate(5.067 0.089)" fill="#ebebeb"/>
      <path id="Path_5161" data-name="Path 5161" d="M336.093.2V178.874s-10.5-2.255-14.975-24.237-20.255-23.11-28.146-23.673-29.31-14.655-37.2-29.31-30.437-8.455-40.583-3.946-50.165,9.018-65.947-7.891-35.51-31.564-68.2-35.51-63.129-7.891-75.529-31S5.511,0,5.511,0Z" fill="#e1e1e1"/>
      <path id="Path_5162" data-name="Path 5162" d="M.023,0S-2.821,15.571,55.065,25.1s59.352,5.129,78.4,26.379S212.6,73.457,236.053,67.6s32.241,14.655,37.37,27.111,31.886,25.646,41.955,27.844,7.138,24.913,12.268,27.111,2.413,1.347,2.413,1.347V0Z" transform="translate(5.74 0.197)" fill="#d4d4d4"/>
    </g>
  </g>
</svg>
