<svg id="Group_4571" data-name="Group 4571" xmlns="http://www.w3.org/2000/svg" width="43.33" height="26.473" viewBox="0 0 43.33 26.473">
  <g id="Group_4570" data-name="Group 4570" transform="translate(0 19.522)">
    <path id="Path_5202" data-name="Path 5202" d="M5562.122,1481.888a.484.484,0,0,1-.486.309h-.006a.489.489,0,0,1-.127-.038.447.447,0,0,1-.14-.1,1,1,0,0,1-.143-.188l-1.062-2.951-1.128,2.977a.463.463,0,0,1-.466.3h-.006a.528.528,0,0,1-.134-.038.479.479,0,0,1-.148-.1.909.909,0,0,1-.146-.188c-.195-.346-1.608-5.033-1.608-5.033h.614a.542.542,0,0,1,.249.055.656.656,0,0,1,.189.144.8.8,0,0,1,.133.2,1.329,1.329,0,0,1,.066.21l.88,3.083.9-2.971a.637.637,0,0,1,.7-.49l.025,0a.711.711,0,0,1,.245.114.765.765,0,0,1,.2.216c.057.09,1,3.127,1,3.127l.994-3.683h.55a.466.466,0,0,1,.326.129.473.473,0,0,1,.141.368Z" transform="translate(-5556.52 -1476.565)" fill="#041c34"/>
    <path id="Path_5203" data-name="Path 5203" d="M5642.375,1489.022a.8.8,0,0,1-.466.795,3.722,3.722,0,0,1-1.5.222h-.683a.919.919,0,0,0,.383.628,1.309,1.309,0,0,0,.789.233,3.01,3.01,0,0,0,.679-.082,1.3,1.3,0,0,0,.6-.313h.038v.326a.924.924,0,0,1-.074.372.728.728,0,0,1-.252.3,1.374,1.374,0,0,1-.471.2,2.968,2.968,0,0,1-.717.074,2.068,2.068,0,0,1-1.422-.573,2.123,2.123,0,0,1-.462-.664,2.092,2.092,0,0,1-.175-.869,2.779,2.779,0,0,1,.152-.946,2.09,2.09,0,0,1,.423-.719,1.817,1.817,0,0,1,.648-.453,2.131,2.131,0,0,1,.829-.158,1.794,1.794,0,0,1,.627.112,1.665,1.665,0,0,1,.535.32,1.554,1.554,0,0,1,.374.512A1.6,1.6,0,0,1,5642.375,1489.022Zm-.978-.125a.547.547,0,0,0-.214-.474.965.965,0,0,0-.579-.156.81.81,0,0,0-.345.074.952.952,0,0,0-.277.193.841.841,0,0,0-.182.282,1.051,1.051,0,0,0-.072.341l-.007.14h.462q.375,0,.609-.023a1.628,1.628,0,0,0,.368-.07.354.354,0,0,0,.186-.125A.326.326,0,0,0,5641.4,1488.9Z" transform="translate(-5630.595 -1486.09)" fill="#041c34"/>
    <path id="Path_5204" data-name="Path 5204" d="M5705.371,1477.466a2.635,2.635,0,0,1-.148.887,2.2,2.2,0,0,1-.415.723,1.947,1.947,0,0,1-.656.485,2.027,2.027,0,0,1-.862.18,1.892,1.892,0,0,1-.761-.155,1.873,1.873,0,0,1-.625-.44,2.162,2.162,0,0,1-.427-.677,2.288,2.288,0,0,1-.159-.866v-3.55h.357a.7.7,0,0,1,.495.176.711.711,0,0,1,.192.548v1.218a1.7,1.7,0,0,1,.184-.228,1.307,1.307,0,0,1,.249-.2,1.4,1.4,0,0,1,.314-.146,1.249,1.249,0,0,1,.388-.057,1.8,1.8,0,0,1,.739.154,1.747,1.747,0,0,1,.6.434,2.067,2.067,0,0,1,.4.666A2.409,2.409,0,0,1,5705.371,1477.466Zm-1.077.178a2.661,2.661,0,0,0-.066-.643,1.1,1.1,0,0,0-.2-.419.737.737,0,0,0-.314-.229,1.213,1.213,0,0,0-.428-.07.741.741,0,0,0-.368.093.975.975,0,0,0-.291.248,1.176,1.176,0,0,0-.193.374,1.479,1.479,0,0,0-.07.457,1.557,1.557,0,0,0,.283,1.043.952.952,0,0,0,.749.319.73.73,0,0,0,.356-.089.916.916,0,0,0,.284-.245,1.147,1.147,0,0,0,.188-.37A1.586,1.586,0,0,0,5704.293,1477.645Z" transform="translate(-5687.12 -1474.053)" fill="#041c34"/>
    <path id="Path_5205" data-name="Path 5205" d="M5773.139,1490.365a1.277,1.277,0,0,1-.451,1.041,1.986,1.986,0,0,1-1.3.374,1.925,1.925,0,0,1-.533-.07,1.679,1.679,0,0,1-.427-.184.918.918,0,0,1-.282-.262.541.541,0,0,1-.1-.311v-.47h.038a1.134,1.134,0,0,0,.22.15,1.777,1.777,0,0,0,.308.129,2.366,2.366,0,0,0,.358.085,2.322,2.322,0,0,0,.374.031q.758,0,.759-.459a.344.344,0,0,0-.034-.157.319.319,0,0,0-.127-.121.987.987,0,0,0-.264-.1q-.17-.042-.443-.083a1.946,1.946,0,0,1-.99-.36.925.925,0,0,1-.323-.751,1.287,1.287,0,0,1,.127-.558,1.391,1.391,0,0,1,.361-.463,1.767,1.767,0,0,1,.559-.313,2.172,2.172,0,0,1,.732-.116,2,2,0,0,1,.609.082,1.3,1.3,0,0,1,.416.212.819.819,0,0,1,.237.29.736.736,0,0,1,.074.307v.395H5773a1.263,1.263,0,0,0-.493-.275,2.18,2.18,0,0,0-.706-.112,1.171,1.171,0,0,0-.658.133.4.4,0,0,0-.18.334.275.275,0,0,0,.032.135.288.288,0,0,0,.122.106,1.073,1.073,0,0,0,.252.085q.163.038.432.083a2.043,2.043,0,0,1,1,.4A.987.987,0,0,1,5773.139,1490.365Z" transform="translate(-5749 -1486.09)" fill="#041c34"/>
    <path id="Path_5206" data-name="Path 5206" d="M5837.969,1479.775a1.75,1.75,0,0,1,.018-.267,1.03,1.03,0,0,1,.051-.2.72.72,0,0,1,.093-.175c.039-.054.086-.116.142-.184a1.111,1.111,0,0,1,.237-.207.464.464,0,0,1,.252-.082H5839v.948h1.453v.429a.5.5,0,0,1-.151.33.607.607,0,0,1-.471.167H5839v1.638a.808.808,0,0,0,.171.582.656.656,0,0,0,.489.173,1.467,1.467,0,0,0,.751-.148h.042v.372a.624.624,0,0,1-.229.512,1.08,1.08,0,0,1-.689.186,1.559,1.559,0,0,1-1.185-.408,1.6,1.6,0,0,1-.385-1.143Z" transform="translate(-5810.375 -1478.205)" fill="#041c34"/>
    <path id="Path_5207" data-name="Path 5207" d="M5898.755,1477.713a2.854,2.854,0,0,1-.112.831,1.655,1.655,0,0,1-.352.641,1.553,1.553,0,0,1-.626.413,2.624,2.624,0,0,1-.919.144,1.792,1.792,0,0,1-.77-.167,1.923,1.923,0,0,1-.62-.459,2.161,2.161,0,0,1-.412-.673,2.229,2.229,0,0,1-.148-.814,3.313,3.313,0,0,1,.123-.935,2.1,2.1,0,0,1,.361-.719,1.53,1.53,0,0,1,.592-.457,1.985,1.985,0,0,1,.813-.157,1.057,1.057,0,0,1,.314.049,1.209,1.209,0,0,1,.3.138,1.341,1.341,0,0,1,.252.211.9.9,0,0,1,.174.262v-1.968h.319a.684.684,0,0,1,.542.2.753.753,0,0,1,.17.514Zm-1.047-.045a2.362,2.362,0,0,0-.081-.669,1.257,1.257,0,0,0-.218-.438.826.826,0,0,0-.323-.245,1.009,1.009,0,0,0-.394-.078.732.732,0,0,0-.364.089.811.811,0,0,0-.271.248,1.243,1.243,0,0,0-.175.377,1.716,1.716,0,0,0-.062.472,2.015,2.015,0,0,0,.082.592,1.5,1.5,0,0,0,.222.455.978.978,0,0,0,.33.29.876.876,0,0,0,.417.1.7.7,0,0,0,.639-.311A1.639,1.639,0,0,0,5897.708,1477.667Z" transform="translate(-5861.63 -1474.053)" fill="#041c34"/>
    <path id="Path_5208" data-name="Path 5208" d="M5963,1491.619q-.3.694-.529,1.132a3.6,3.6,0,0,1-.454.687,1.279,1.279,0,0,1-.449.345,1.3,1.3,0,0,1-.51.1.8.8,0,0,1-.515-.174.571.571,0,0,1-.217-.47v-.2l.591-.038a.774.774,0,0,0,.241-.047.507.507,0,0,0,.182-.125.988.988,0,0,0,.156-.228,3.766,3.766,0,0,0,.161-.37,5.867,5.867,0,0,1-.45-.819q-.237-.508-.449-1.071t-.372-1.1a7.024,7.024,0,0,1-.216-.908h.554a.63.63,0,0,1,.391.133.561.561,0,0,1,.216.356,7.612,7.612,0,0,0,.328,1.233,9.338,9.338,0,0,0,.51,1.183q.125-.3.255-.664t.245-.76q.114-.393.2-.777c.055-.257.094-.491.12-.7h.451a.512.512,0,0,1,.368.117.5.5,0,0,1,.121.372,1.556,1.556,0,0,1-.055.332q-.056.222-.14.493t-.193.575q-.108.3-.21.578c-.069.183-.132.349-.192.5S5963.033,1491.548,5963,1491.619Z" transform="translate(-5920.598 -1486.928)" fill="#041c34"/>
  </g>
  <path id="Path_5209" data-name="Path 5209" d="M5761.521,1274.949l-.23.751-.806,2.624-.618,2.014-1.284,3.749-.851-3.1-.524-1.706.944-3.045.036-.117a1.753,1.753,0,0,1,1.656-1.179h1.641Z" transform="translate(-5737.533 -1274.938)" fill="#041c34"/>
  <path id="Path_5210" data-name="Path 5210" d="M5616.89,1283.836h-.006a3.538,3.538,0,0,0-2.61,1.146l-1.431-4.643-.167-.543-.167.543-2.378,7.721a2.339,2.339,0,0,1-2.281,1.827h-.034a2.338,2.338,0,0,1-2.281-1.827l-2.379-7.721-.618-2.015-.806-2.624-.23-.751.035-.011h1.641a1.752,1.752,0,0,1,1.656,1.178l.037.118,2.758,8.986.2.668.205-.668,2.758-8.986.036-.118a1.753,1.753,0,0,1,1.655-1.178h.377a1.753,1.753,0,0,1,1.656,1.178l.036.118,1.578,5.14Z" transform="translate(-5597.092 -1274.939)" fill="#1cd2e2"/>
  <path id="Path_5211" data-name="Path 5211" d="M5807.343,1279.392a1.652,1.652,0,0,0,1.263,1.6h2.307l2.23,0,1.283,0h.488a4.449,4.449,0,0,1,1.472,8.544,4.174,4.174,0,0,0,.324-3.654l0-.009a3.243,3.243,0,0,0-3.019-2.046h-4.732a4.448,4.448,0,0,1-2.542-8.071,0,0,0,0,1,0,0,4.433,4.433,0,0,1,2.308-.816h.529l4.259-.007h5.638v.036l-.481,1.569a1.753,1.753,0,0,1-1.613,1.237H5808.6A1.652,1.652,0,0,0,5807.343,1279.392Z" transform="translate(-5780.23 -1274.943)" fill="#1cd2e2"/>
  <path id="Path_5212" data-name="Path 5212" d="M5928.606,1386.643c.021.053.041.107.058.161C5928.646,1386.75,5928.627,1386.7,5928.606,1386.643Z" transform="translate(-5892.126 -1375.691)" fill="#1cd2e2"/>
  <circle id="Ellipse_84" data-name="Ellipse 84" cx="2.001" cy="2.001" r="2.001" transform="translate(17.762 10.448)" fill="#041c34"/>
  <circle id="Ellipse_85" data-name="Ellipse 85" cx="2.001" cy="2.001" r="2.001" transform="translate(30.587 10.448)" fill="#041c34"/>
  <circle id="Ellipse_86" data-name="Ellipse 86" cx="2.001" cy="2.001" r="2.001" transform="translate(24.267 10.448)" fill="#041c34"/>
</svg>
